<svg xmlns="http://www.w3.org/2000/svg" version="1.1" xmlns:xlink="http://www.w3.org/1999/xlink" width="200" height="200"><svg xmlns="http://www.w3.org/2000/svg" version="1.1" xmlns:xlink="http://www.w3.org/1999/xlink" width="200" height="200"><svg xmlns="http://www.w3.org/2000/svg" version="1.1" xmlns:xlink="http://www.w3.org/1999/xlink" viewBox="0 0 200 200"><rect width="200" height="200" fill="url('#gradient')"></rect><defs><linearGradient id="gradient" gradientTransform="rotate(127 0.5 0.5)"><stop offset="0%" stop-color="#76caa1"></stop><stop offset="100%" stop-color="#e57734"></stop></linearGradient></defs><g><g fill="#ffffff" transform="matrix(1.7598007471980075,0,0,1.7598007471980075,29.11202343362949,110.01174177062913)" stroke="#ffffff" stroke-width="0"><path d="M6.69-4.82L4.50-4.82L4.50 0L1.07 0L1.07-14.22L6.75-14.22Q8.38-14.22 9.63-13.62Q10.89-13.02 11.58-11.91Q12.27-10.80 12.27-9.39L12.27-9.39Q12.27-7.31 10.78-6.07Q9.29-4.82 6.69-4.82L6.69-4.82ZM4.50-11.57L4.50-7.47L6.75-7.47Q7.74-7.47 8.27-7.97Q8.79-8.47 8.79-9.38L8.79-9.38Q8.79-10.37 8.25-10.97Q7.71-11.56 6.79-11.57L6.79-11.57L4.50-11.57ZM13.41-4.82L13.40-5.38Q13.40-6.96 14.01-8.20Q14.63-9.43 15.78-10.10Q16.93-10.76 18.49-10.76L18.49-10.76Q20.86-10.76 22.23-9.29Q23.59-7.82 23.59-5.29L23.59-5.29L23.59-5.18Q23.59-2.71 22.22-1.25Q20.85 0.20 18.51 0.20L18.51 0.20Q16.25 0.20 14.88-1.16Q13.52-2.51 13.41-4.82L13.41-4.82ZM16.70-5.77L16.69-5.18Q16.69-3.71 17.15-3.03Q17.61-2.34 18.51-2.34L18.51-2.34Q20.26-2.34 20.30-5.05L20.30-5.05L20.30-5.38Q20.30-8.22 18.49-8.22L18.49-8.22Q16.84-8.22 16.70-5.77L16.70-5.77ZM31.49-10.64L31.44-7.59L30.35-7.67Q28.80-7.67 28.36-6.69L28.36-6.69L28.36 0L25.07 0L25.07-10.57L28.15-10.57L28.26-9.21Q29.09-10.76 30.58-10.76L30.58-10.76Q31.10-10.76 31.49-10.64L31.49-10.64ZM33.65-13.19L36.94-13.19L36.94-10.57L38.68-10.57L38.68-8.28L36.94-8.28L36.94-3.45Q36.94-2.85 37.16-2.62Q37.37-2.38 38.01-2.38L38.01-2.38Q38.50-2.38 38.83-2.44L38.83-2.44L38.83-0.09Q37.94 0.20 36.97 0.20L36.97 0.20Q35.27 0.20 34.46-0.61Q33.65-1.41 33.65-3.04L33.65-3.04L33.65-8.28L32.30-8.28L32.30-10.57L33.65-10.57L33.65-13.19ZM44.00 0L40.70 0L40.70-8.28L39.17-8.28L39.17-10.57L40.70-10.57L40.70-11.41Q40.70-13.21 41.77-14.21Q42.83-15.21 44.76-15.21L44.76-15.21Q45.46-15.21 46.30-15L46.30-15L46.31-12.58Q46.01-12.67 45.50-12.67L45.50-12.67Q44.00-12.67 44.00-11.38L44.00-11.38L44.00-10.57L46.06-10.57L46.06-8.28L44.00-8.28L44.00 0ZM46.82-4.82L46.81-5.38Q46.81-6.96 47.42-8.20Q48.04-9.43 49.19-10.10Q50.34-10.76 51.89-10.76L51.89-10.76Q54.27-10.76 55.63-9.29Q57.00-7.82 57.00-5.29L57.00-5.29L57.00-5.18Q57.00-2.71 55.63-1.25Q54.26 0.20 51.91 0.20L51.91 0.20Q49.66 0.20 48.29-1.16Q46.92-2.51 46.82-4.82L46.82-4.82ZM50.11-5.77L50.10-5.18Q50.10-3.71 50.56-3.03Q51.02-2.34 51.91-2.34L51.91-2.34Q53.67-2.34 53.71-5.05L53.71-5.05L53.71-5.38Q53.71-8.22 51.89-8.22L51.89-8.22Q50.24-8.22 50.11-5.77L50.11-5.77ZM61.92-15L61.92 0L58.62 0L58.62-15L61.92-15ZM65.90-10.99L65.90-10.99Q66.68-10.99 67.20-10.52Q67.71-10.06 67.71-9.34Q67.71-8.61 67.20-8.15Q66.68-7.69 65.90-7.69L65.90-7.69Q65.11-7.69 64.59-8.15Q64.08-8.62 64.08-9.34Q64.08-10.05 64.59-10.52Q65.11-10.99 65.90-10.99ZM65.35 3.83L65.35 3.83L63.69 3.05L64.02 2.38Q64.71 1.11 64.74-0.04L64.74-0.04L64.74-2.48L67.37-2.48L67.36-0.36Q67.35 0.76 66.79 1.92Q66.22 3.09 65.35 3.83ZM69.31-4.82L69.30-5.38Q69.30-6.96 69.91-8.20Q70.53-9.43 71.68-10.10Q72.83-10.76 74.38-10.76L74.38-10.76Q76.76-10.76 78.13-9.29Q79.49-7.82 79.49-5.29L79.49-5.29L79.49-5.18Q79.49-2.71 78.12-1.25Q76.75 0.20 74.40 0.20L74.40 0.20Q72.15 0.20 70.78-1.16Q69.41-2.51 69.31-4.82L69.31-4.82ZM72.60-5.77L72.59-5.18Q72.59-3.71 73.05-3.03Q73.51-2.34 74.40-2.34L74.40-2.34Q76.16-2.34 76.20-5.05L76.20-5.05L76.20-5.38Q76.20-8.22 74.38-8.22L74.38-8.22Q72.73-8.22 72.60-5.77L72.60-5.77Z"></path></g></g></svg></svg><style>@media (prefers-color-scheme: light) { :root { filter: contrast(1) brightness(1); } }
@media (prefers-color-scheme: dark) { :root { filter: none; } }
</style></svg>